<mxfile host="app.diagrams.net" modified="2024-01-23T03:51:30.392Z" agent="Mozilla/5.0 (Windows NT 10.0; Win64; x64) AppleWebKit/537.36 (KHTML, like Gecko) Chrome/120.0.0.0 Safari/537.36" etag="X2uStkiQP0zfHbq04r4G" version="22.1.21" type="github">
  <diagram name="ページ1" id="HRNIgumUpjEWDVruRv9k">
    <mxGraphModel dx="1674" dy="746" grid="1" gridSize="10" guides="1" tooltips="1" connect="1" arrows="1" fold="1" page="1" pageScale="1" pageWidth="1169" pageHeight="827" math="0" shadow="0">
      <root>
        <mxCell id="0" />
        <mxCell id="1" parent="0" />
        <mxCell id="LYvKB-2R4lMAGz89C2_r-15" value="" style="edgeStyle=orthogonalEdgeStyle;rounded=0;orthogonalLoop=1;jettySize=auto;html=1;" edge="1" parent="1" source="LYvKB-2R4lMAGz89C2_r-1" target="LYvKB-2R4lMAGz89C2_r-14">
          <mxGeometry relative="1" as="geometry" />
        </mxCell>
        <mxCell id="LYvKB-2R4lMAGz89C2_r-1" value="受入企業" style="swimlane;whiteSpace=wrap;html=1;" vertex="1" parent="1">
          <mxGeometry x="40" y="80" width="160" height="120" as="geometry" />
        </mxCell>
        <mxCell id="LYvKB-2R4lMAGz89C2_r-2" value="人がほしい&lt;br&gt;人件費を抑えたい" style="text;html=1;align=center;verticalAlign=middle;resizable=0;points=[];autosize=1;strokeColor=none;fillColor=none;" vertex="1" parent="LYvKB-2R4lMAGz89C2_r-1">
          <mxGeometry x="20" y="50" width="120" height="40" as="geometry" />
        </mxCell>
        <mxCell id="LYvKB-2R4lMAGz89C2_r-11" style="edgeStyle=orthogonalEdgeStyle;rounded=0;orthogonalLoop=1;jettySize=auto;html=1;exitX=1;exitY=0.25;exitDx=0;exitDy=0;entryX=0;entryY=0.25;entryDx=0;entryDy=0;" edge="1" parent="1" source="LYvKB-2R4lMAGz89C2_r-3" target="LYvKB-2R4lMAGz89C2_r-5">
          <mxGeometry relative="1" as="geometry" />
        </mxCell>
        <mxCell id="LYvKB-2R4lMAGz89C2_r-16" style="edgeStyle=orthogonalEdgeStyle;rounded=0;orthogonalLoop=1;jettySize=auto;html=1;exitX=0;exitY=0.5;exitDx=0;exitDy=0;entryX=1;entryY=0.5;entryDx=0;entryDy=0;" edge="1" parent="1" source="LYvKB-2R4lMAGz89C2_r-3" target="LYvKB-2R4lMAGz89C2_r-14">
          <mxGeometry relative="1" as="geometry" />
        </mxCell>
        <mxCell id="LYvKB-2R4lMAGz89C2_r-18" style="edgeStyle=orthogonalEdgeStyle;rounded=0;orthogonalLoop=1;jettySize=auto;html=1;exitX=0.5;exitY=1;exitDx=0;exitDy=0;entryX=0.5;entryY=1;entryDx=0;entryDy=0;" edge="1" parent="1" source="LYvKB-2R4lMAGz89C2_r-3" target="LYvKB-2R4lMAGz89C2_r-7">
          <mxGeometry relative="1" as="geometry" />
        </mxCell>
        <mxCell id="LYvKB-2R4lMAGz89C2_r-26" style="edgeStyle=orthogonalEdgeStyle;rounded=0;orthogonalLoop=1;jettySize=auto;html=1;exitX=0.25;exitY=1;exitDx=0;exitDy=0;entryX=0.25;entryY=0;entryDx=0;entryDy=0;" edge="1" parent="1" source="LYvKB-2R4lMAGz89C2_r-3" target="LYvKB-2R4lMAGz89C2_r-24">
          <mxGeometry relative="1" as="geometry" />
        </mxCell>
        <mxCell id="LYvKB-2R4lMAGz89C2_r-3" value="監理団体" style="swimlane;whiteSpace=wrap;html=1;" vertex="1" parent="1">
          <mxGeometry x="350" y="80" width="160" height="120" as="geometry" />
        </mxCell>
        <mxCell id="LYvKB-2R4lMAGz89C2_r-4" value="人材を受入企業に&lt;br&gt;提案したい" style="text;html=1;align=center;verticalAlign=middle;resizable=0;points=[];autosize=1;strokeColor=none;fillColor=none;" vertex="1" parent="LYvKB-2R4lMAGz89C2_r-3">
          <mxGeometry x="20" y="50" width="120" height="40" as="geometry" />
        </mxCell>
        <mxCell id="LYvKB-2R4lMAGz89C2_r-9" style="edgeStyle=orthogonalEdgeStyle;rounded=0;orthogonalLoop=1;jettySize=auto;html=1;exitX=1;exitY=0.25;exitDx=0;exitDy=0;entryX=0;entryY=0.25;entryDx=0;entryDy=0;" edge="1" parent="1" source="LYvKB-2R4lMAGz89C2_r-5" target="LYvKB-2R4lMAGz89C2_r-7">
          <mxGeometry relative="1" as="geometry" />
        </mxCell>
        <mxCell id="LYvKB-2R4lMAGz89C2_r-12" style="edgeStyle=orthogonalEdgeStyle;rounded=0;orthogonalLoop=1;jettySize=auto;html=1;exitX=0;exitY=0.75;exitDx=0;exitDy=0;entryX=1;entryY=0.75;entryDx=0;entryDy=0;" edge="1" parent="1" source="LYvKB-2R4lMAGz89C2_r-5" target="LYvKB-2R4lMAGz89C2_r-3">
          <mxGeometry relative="1" as="geometry" />
        </mxCell>
        <mxCell id="LYvKB-2R4lMAGz89C2_r-5" value="送出し機関" style="swimlane;whiteSpace=wrap;html=1;" vertex="1" parent="1">
          <mxGeometry x="700" y="80" width="160" height="120" as="geometry" />
        </mxCell>
        <mxCell id="LYvKB-2R4lMAGz89C2_r-6" value="ミャンマー" style="text;html=1;align=center;verticalAlign=middle;resizable=0;points=[];autosize=1;strokeColor=none;fillColor=none;" vertex="1" parent="LYvKB-2R4lMAGz89C2_r-5">
          <mxGeometry x="40" y="55" width="80" height="30" as="geometry" />
        </mxCell>
        <mxCell id="LYvKB-2R4lMAGz89C2_r-10" style="edgeStyle=orthogonalEdgeStyle;rounded=0;orthogonalLoop=1;jettySize=auto;html=1;exitX=0;exitY=0.75;exitDx=0;exitDy=0;entryX=1;entryY=0.75;entryDx=0;entryDy=0;" edge="1" parent="1" source="LYvKB-2R4lMAGz89C2_r-7" target="LYvKB-2R4lMAGz89C2_r-5">
          <mxGeometry relative="1" as="geometry" />
        </mxCell>
        <mxCell id="LYvKB-2R4lMAGz89C2_r-7" value="日本語学校等" style="swimlane;whiteSpace=wrap;html=1;" vertex="1" parent="1">
          <mxGeometry x="960" y="80" width="160" height="120" as="geometry" />
        </mxCell>
        <mxCell id="LYvKB-2R4lMAGz89C2_r-8" value="技能実習生" style="text;html=1;align=center;verticalAlign=middle;resizable=0;points=[];autosize=1;strokeColor=none;fillColor=none;" vertex="1" parent="LYvKB-2R4lMAGz89C2_r-7">
          <mxGeometry x="40" y="55" width="80" height="30" as="geometry" />
        </mxCell>
        <mxCell id="LYvKB-2R4lMAGz89C2_r-13" value="" style="endArrow=none;html=1;rounded=0;" edge="1" parent="1">
          <mxGeometry width="50" height="50" relative="1" as="geometry">
            <mxPoint x="600" y="760" as="sourcePoint" />
            <mxPoint x="600" as="targetPoint" />
          </mxGeometry>
        </mxCell>
        <mxCell id="LYvKB-2R4lMAGz89C2_r-14" value="１" style="ellipse;whiteSpace=wrap;html=1;fontStyle=1;startSize=23;" vertex="1" parent="1">
          <mxGeometry x="260" y="120" width="40" height="40" as="geometry" />
        </mxCell>
        <mxCell id="LYvKB-2R4lMAGz89C2_r-17" value="２" style="ellipse;whiteSpace=wrap;html=1;fontStyle=1;startSize=23;" vertex="1" parent="1">
          <mxGeometry x="580" y="120" width="40" height="40" as="geometry" />
        </mxCell>
        <mxCell id="LYvKB-2R4lMAGz89C2_r-19" value="４" style="ellipse;whiteSpace=wrap;html=1;fontStyle=1;startSize=23;" vertex="1" parent="1">
          <mxGeometry x="880" y="200" width="40" height="40" as="geometry" />
        </mxCell>
        <mxCell id="LYvKB-2R4lMAGz89C2_r-22" style="edgeStyle=orthogonalEdgeStyle;rounded=0;orthogonalLoop=1;jettySize=auto;html=1;exitX=0.5;exitY=0;exitDx=0;exitDy=0;" edge="1" parent="1" source="LYvKB-2R4lMAGz89C2_r-21">
          <mxGeometry relative="1" as="geometry">
            <mxPoint x="100" y="210" as="targetPoint" />
          </mxGeometry>
        </mxCell>
        <mxCell id="LYvKB-2R4lMAGz89C2_r-21" value="特定技能外国人" style="text;html=1;strokeColor=none;fillColor=none;align=center;verticalAlign=middle;whiteSpace=wrap;rounded=0;shadow=1;" vertex="1" parent="1">
          <mxGeometry x="40" y="360" width="120" height="30" as="geometry" />
        </mxCell>
        <mxCell id="LYvKB-2R4lMAGz89C2_r-23" value="３" style="ellipse;whiteSpace=wrap;html=1;fontStyle=1;startSize=23;" vertex="1" parent="1">
          <mxGeometry x="80" y="260" width="40" height="40" as="geometry" />
        </mxCell>
        <mxCell id="LYvKB-2R4lMAGz89C2_r-24" value="各種国内機関" style="swimlane;whiteSpace=wrap;html=1;" vertex="1" parent="1">
          <mxGeometry x="350" y="320" width="160" height="120" as="geometry" />
        </mxCell>
        <mxCell id="LYvKB-2R4lMAGz89C2_r-25" value="・JITCO&lt;br&gt;・OTIT&lt;br&gt;・入国管理局" style="text;html=1;align=left;verticalAlign=middle;resizable=0;points=[];autosize=1;strokeColor=none;fillColor=none;" vertex="1" parent="LYvKB-2R4lMAGz89C2_r-24">
          <mxGeometry x="30" y="40" width="100" height="60" as="geometry" />
        </mxCell>
        <mxCell id="LYvKB-2R4lMAGz89C2_r-27" value="５" style="ellipse;whiteSpace=wrap;html=1;fontStyle=1;startSize=23;" vertex="1" parent="1">
          <mxGeometry x="420" y="260" width="40" height="40" as="geometry" />
        </mxCell>
        <mxCell id="LYvKB-2R4lMAGz89C2_r-29" value="&lt;span style=&quot;background-color: initial; font-size: 18px; text-align: justify;&quot;&gt;①人材情報プラットフォーム＆TMS&lt;/span&gt;&lt;br&gt;&lt;span style=&quot;background-color: initial; font-size: 18px; text-align: justify;&quot;&gt;②コミュニケーションツール&lt;/span&gt;&lt;br&gt;&lt;span style=&quot;background-color: initial; font-size: 18px; text-align: justify;&quot;&gt;③掲載サイト&lt;/span&gt;&lt;br&gt;&lt;span style=&quot;background-color: initial; font-size: 18px; text-align: justify;&quot;&gt;④研修システム&lt;/span&gt;&lt;br&gt;&lt;span style=&quot;background-color: initial; font-size: 18px; text-align: justify;&quot;&gt;⑤申請処理システム&lt;/span&gt;" style="text;html=1;strokeColor=none;fillColor=none;align=left;verticalAlign=middle;whiteSpace=wrap;rounded=0;" vertex="1" parent="1">
          <mxGeometry x="740" y="350" width="370" height="190" as="geometry" />
        </mxCell>
        <mxCell id="LYvKB-2R4lMAGz89C2_r-30" value="国内" style="text;html=1;strokeColor=none;fillColor=none;align=center;verticalAlign=middle;whiteSpace=wrap;rounded=0;" vertex="1" parent="1">
          <mxGeometry x="250" y="10" width="60" height="30" as="geometry" />
        </mxCell>
        <mxCell id="LYvKB-2R4lMAGz89C2_r-31" value="国外" style="text;html=1;strokeColor=none;fillColor=none;align=center;verticalAlign=middle;whiteSpace=wrap;rounded=0;" vertex="1" parent="1">
          <mxGeometry x="890" y="10" width="60" height="30" as="geometry" />
        </mxCell>
        <mxCell id="LYvKB-2R4lMAGz89C2_r-32" value="選定" style="text;html=1;strokeColor=none;fillColor=none;align=center;verticalAlign=middle;whiteSpace=wrap;rounded=0;" vertex="1" parent="1">
          <mxGeometry x="200" y="110" width="60" height="30" as="geometry" />
        </mxCell>
        <mxCell id="LYvKB-2R4lMAGz89C2_r-33" value="掲載" style="text;html=1;strokeColor=none;fillColor=none;align=center;verticalAlign=middle;whiteSpace=wrap;rounded=0;" vertex="1" parent="1">
          <mxGeometry x="290" y="110" width="60" height="30" as="geometry" />
        </mxCell>
        <mxCell id="LYvKB-2R4lMAGz89C2_r-35" value="求人情報" style="text;html=1;strokeColor=none;fillColor=none;align=center;verticalAlign=middle;whiteSpace=wrap;rounded=0;" vertex="1" parent="1">
          <mxGeometry x="620" y="70" width="60" height="30" as="geometry" />
        </mxCell>
        <mxCell id="LYvKB-2R4lMAGz89C2_r-37" value="手続き等" style="text;html=1;strokeColor=none;fillColor=none;align=center;verticalAlign=middle;whiteSpace=wrap;rounded=0;" vertex="1" parent="1">
          <mxGeometry x="620" y="180" width="60" height="30" as="geometry" />
        </mxCell>
        <mxCell id="LYvKB-2R4lMAGz89C2_r-38" value="申請処理" style="text;html=1;strokeColor=none;fillColor=none;align=center;verticalAlign=middle;whiteSpace=wrap;rounded=0;" vertex="1" parent="1">
          <mxGeometry x="320" y="250" width="60" height="30" as="geometry" />
        </mxCell>
        <mxCell id="LYvKB-2R4lMAGz89C2_r-39" value="求人募集" style="text;html=1;strokeColor=none;fillColor=none;align=center;verticalAlign=middle;whiteSpace=wrap;rounded=0;" vertex="1" parent="1">
          <mxGeometry x="890" y="70" width="60" height="30" as="geometry" />
        </mxCell>
        <mxCell id="LYvKB-2R4lMAGz89C2_r-40" value="応募" style="text;html=1;strokeColor=none;fillColor=none;align=center;verticalAlign=middle;whiteSpace=wrap;rounded=0;" vertex="1" parent="1">
          <mxGeometry x="890" y="170" width="60" height="30" as="geometry" />
        </mxCell>
      </root>
    </mxGraphModel>
  </diagram>
</mxfile>
